<svg width="40" height="40" viewBox="0 0 40 40" fill="none" xmlns="http://www.w3.org/2000/svg">
<path d="M23.1177 19.0998C23.0347 18.9019 22.9531 18.7017 22.8671 18.5022C22.6254 17.9328 22.3652 17.37 22.0945 16.8169C26.6804 14.9448 28.5414 12.2541 28.5636 12.2222C30.1911 14.1996 31.178 16.7257 31.2046 19.4802C31.0371 19.4439 27.1067 18.5979 23.1177 19.0998ZM26.085 29.2257C25.9671 28.5258 25.348 25.1174 23.8243 20.9334C27.5738 20.3343 30.8213 21.362 31.0608 21.4406C30.5448 24.6762 28.6912 27.4655 26.085 29.2257ZM19.5973 31.2084C16.8547 31.2084 14.336 30.2556 12.3482 28.6645C12.3067 28.6326 12.2578 28.594 12.1992 28.5466C12.2578 28.594 12.3067 28.6326 12.3482 28.6645C12.4157 28.7171 12.4594 28.7497 12.4594 28.7497C12.4594 28.7497 14.6853 23.8962 21.5718 21.4962C21.597 21.4865 21.6245 21.4806 21.6504 21.4725C23.2838 25.7165 23.957 29.2724 24.1298 30.2875C22.7374 30.8792 21.204 31.2084 19.5973 31.2084ZM10.9603 27.3551C9.11036 25.2983 7.98485 22.5787 7.98485 19.5951C7.98485 19.472 7.99077 19.3504 7.99374 19.2296C8.2006 19.234 13.9371 19.3638 19.9154 17.5747C20.2476 18.2257 20.5657 18.8885 20.8571 19.5491C20.7036 19.5907 20.5516 19.6366 20.3996 19.6878C14.1336 21.7119 10.9551 27.3491 10.9551 27.3491C10.9551 27.3491 10.9603 27.3536 10.9603 27.3551ZM14.6423 9.09701C14.7972 9.30313 16.9444 12.214 18.9545 15.7856C13.3788 17.2677 8.53945 17.2084 8.23397 17.204C8.98728 13.6065 11.4029 10.6251 14.6423 9.09701ZM16.8147 8.32294C16.8147 8.32443 16.8132 8.32665 16.8132 8.32665C16.8132 8.32665 16.7991 8.32962 16.7784 8.33258C16.791 8.32962 16.8021 8.32813 16.8147 8.32294ZM19.5973 7.98559C22.5357 7.98559 25.2205 9.08218 27.2654 10.8839C27.2364 10.9276 25.583 13.4456 21.1989 15.0871C19.2148 11.4407 17.0342 8.54389 16.8599 8.31331C17.7378 8.10051 18.6535 7.98559 19.5973 7.98559ZM32.1226 14.3034C31.7837 13.4982 31.3604 12.7212 30.8695 11.9953C30.3846 11.2761 29.8248 10.5977 29.2109 9.98378C28.5955 9.36838 27.9193 8.81081 27.1979 8.32443C26.472 7.83211 25.695 7.41171 24.8898 7.0699C24.0675 6.72439 23.2074 6.45599 22.3347 6.27804C21.4391 6.09416 20.5182 6 19.5973 6C18.6742 6 17.7534 6.09416 16.8584 6.27804C15.985 6.45599 15.1249 6.72439 14.3034 7.0699C13.4975 7.41171 12.7204 7.83211 11.9931 8.32443C11.2731 8.81081 10.597 9.36838 9.98155 9.98378C9.36764 10.5977 8.80933 11.2761 8.32369 11.9953C7.83285 12.7212 7.40874 13.4982 7.0699 14.3034C6.72142 15.1257 6.45451 15.9873 6.27508 16.8599C6.09268 17.7534 6 18.6742 6 19.5951C6 20.5197 6.09268 21.4406 6.27508 22.3355C6.45451 23.2082 6.72142 24.0682 7.0699 24.889C7.40874 25.6942 7.83285 26.4742 8.32369 27.2001C8.80933 27.9201 9.36764 28.5948 9.98155 29.2116C10.597 29.8256 11.2731 30.3816 11.9931 30.8695C12.7204 31.3604 13.4975 31.7822 14.3034 32.1226C15.1249 32.471 15.985 32.7365 16.8584 32.9144C17.7534 33.0998 18.6742 33.1925 19.5973 33.1925C20.5182 33.1925 21.4391 33.0998 22.3347 32.9144C23.2074 32.7365 24.0675 32.471 24.8898 32.1226C25.695 31.7822 26.472 31.3604 27.1979 30.8695C27.9193 30.3816 28.5955 29.8256 29.2109 29.2116C29.8248 28.5948 30.3846 27.9201 30.8695 27.2001C31.3604 26.4742 31.7837 25.6942 32.1226 24.889C32.4696 24.0682 32.7387 23.2082 32.9174 22.3355C33.0998 21.4406 33.1925 20.5197 33.1925 19.5951C33.1925 18.6742 33.0998 17.7534 32.9174 16.8599C32.7387 15.9873 32.4696 15.1257 32.1226 14.3034Z" fill="white"/>
</svg>
