<svg width="40" height="40" viewBox="0 0 40 40" fill="none" xmlns="http://www.w3.org/2000/svg">
<path d="M12.4335 15.4646H6.78906V33.3476H12.4335V15.4646Z" fill="white"/>
<path d="M27.7936 15.2954C24.5605 15.2954 22.5346 17.0474 22.1602 18.2742V15.4673H15.8203C15.9019 16.9579 15.8203 33.3503 15.8203 33.3503H22.1602V23.6729C22.1602 23.1353 22.1343 22.5976 22.2983 22.2114C22.7339 21.1361 23.6704 20.0207 25.354 20.0207C27.555 20.0207 28.5566 21.6737 28.5566 24.096V33.3503H34.9561V23.4069C34.9561 17.8676 31.8046 15.2954 27.7936 15.2954Z" fill="white"/>
<path d="M9.44743 7C7.36344 7 6 8.3383 6 10.1052C6 11.8375 7.32416 13.2049 9.36732 13.2049H9.40814C11.5298 13.2049 12.8509 11.8328 12.8509 10.0997C12.8101 8.33516 11.5298 7 9.44743 7Z" fill="white"/>
</svg>
